<?xml version="1.0" ?>
<svg baseProfile="full" height="272px" version="1.1" viewBox="-20.098995000000016 -8.618095000000006 240.18799 108.76519000000005" width="600px" xmlns="http://www.w3.org/2000/svg" xmlns:ev="http://www.w3.org/2001/xml-events" xmlns:xlink="http://www.w3.org/1999/xlink">
	<defs/>
	<path d="M 53.29,80.035 L 60.61,80.03699999999999 L 63.019999999999996,88.27699999999999 L 76.148,80.03699999999999 L 91.625,80.03699999999999 L 91.625,12.056999999999988 L 53.29,12.056999999999988 L 53.29,80.03499999999998 L 53.29,80.035 M 61.08,19.436999999999998 L 83.836,19.436999999999998 L 83.836,72.657 L 75.106,72.657 L 66.38799999999999,78.13 L 64.80099999999999,72.67 L 61.08099999999999,72.658 L 61.08099999999999,19.438000000000002 L 61.08,19.436999999999998 M 46.818,43.162 L 30.467999999999996,43.162 C 31.012999999999998,34.695 31.154999999999998,27.041999999999998 31.154999999999998,20.207 L 47.141999999999996,20.207 C 47.141999999999996,20.207 47.757,13.157 44.461999999999996,13.237000000000002 L 16.807,13.237000000000002 C 17.897,9.137000000000002 19.267,4.905000000000001 20.906999999999996,0.5290000000000017 C 20.906999999999996,0.5290000000000017 13.383999999999997,0.5290000000000017 10.821999999999996,7.269000000000002 C 9.761999999999995,10.049000000000001 6.6939999999999955,20.749000000000002 1.229999999999995,31.679000000000002 C 3.069999999999995,31.479000000000003 9.156999999999995,31.309 12.741999999999996,24.739 C 13.401999999999996,22.899 13.526999999999996,22.659 14.346999999999996,20.199 L 23.366999999999997,20.199 C 23.366999999999997,23.479000000000003 22.993,41.099000000000004 22.840999999999998,43.149 L 6.51,43.149 C 2.84,43.149 1.6469999999999994,50.529 1.6469999999999994,50.529 L 22.14,50.529 C 20.765,66.11 13.385,79.24 0.0,89.62 C 6.403,91.44800000000001 12.784,89.33 15.937,86.52600000000001 C 15.937,86.52600000000001 23.119,79.99600000000001 27.057,64.88600000000001 L 43.92,85.18 C 43.92,85.18 46.393,76.778 43.532000000000004,72.68400000000001 C 41.162000000000006,69.89600000000002 34.764,62.35400000000001 32.036,59.62000000000001 L 27.466,63.247000000000014 C 28.829,58.87900000000001 29.649,54.637000000000015 29.926000000000002,50.53700000000001 L 49.19,50.53700000000001 C 49.19,50.53700000000001 49.163,43.15700000000001 46.818,43.15700000000001 L 46.818,43.162 M 175.57,42.66 C 182.07999999999998,34.647 189.624,24.357999999999997 189.624,24.357999999999997 C 189.624,24.357999999999997 183.797,19.732999999999997 181.06799999999998,23.087999999999997 C 179.194,25.635999999999996 169.558,38.150999999999996 169.558,38.150999999999996 L 175.57,42.660999999999994 L 175.57,42.66 M 128.667,24.197999999999997 C 125.85300000000001,21.620999999999995 120.571,24.865 120.571,24.865 C 120.571,24.865 132.921,42.065 133.421,42.818 L 139.501,38.528 C 139.501,38.528 131.481,26.775999999999996 128.671,24.198 L 128.667,24.197999999999997 M 199.99,46.5 C 193.81,46.5 159.082,46.792 159.037,46.792 L 159.037,15.232000000000003 C 160.54,15.232000000000003 162.919,15.108000000000002 166.177,14.856000000000003 C 178.95,14.103000000000003 188.091,13.606000000000003 193.60399999999998,13.352000000000004 C 193.60399999999998,13.352000000000004 197.421,4.856000000000003 193.41899999999998,2.9020000000000046 C 192.45899999999997,2.5320000000000045 186.17899999999997,4.332000000000004 186.17899999999997,4.332000000000004 C 186.17899999999997,4.332000000000004 134.54899999999998,9.485000000000003 113.56899999999997,9.972000000000005 C 114.06899999999997,12.728000000000005 115.94899999999997,15.308000000000005 118.49899999999997,16.082000000000004 C 122.65899999999996,17.169000000000004 125.58899999999997,16.612000000000005 133.85899999999998,16.359000000000005 C 141.61899999999997,15.859000000000005 147.509,15.599000000000006 151.51899999999998,15.599000000000006 L 151.51899999999998,46.78900000000001 L 109.80899999999997,46.78900000000001 C 109.80899999999997,46.78900000000001 110.68899999999996,53.75900000000001 117.77899999999997,53.92900000000001 L 151.50899999999996,53.92900000000001 L 151.50899999999996,76.08900000000001 C 151.50899999999996,80.45300000000002 148.01099999999997,82.95900000000002 143.85899999999995,82.68900000000001 C 139.45899999999995,82.72300000000001 135.70899999999995,82.32900000000001 130.83199999999997,82.123 C 131.45499999999996,83.363 132.80899999999997,86.619 136.86699999999996,88.947 C 139.95399999999995,90.449 141.92099999999996,91.0 144.99699999999996,91.0 C 154.23399999999995,91.0 159.26699999999997,85.6 159.02399999999994,76.84 L 159.02399999999994,53.93 L 197.25899999999996,53.93 C 200.28499999999997,53.93 199.97899999999996,46.498 199.97899999999996,46.498 L 199.99,46.5" fill="none" stroke="#000000" stroke-width="0.19999"/>
</svg>
